<?xml version="1.0" encoding="utf-8"?>
<!-- Generator: Adobe Illustrator 27.2.0, SVG Export Plug-In . SVG Version: 6.00 Build 0)  -->
<svg version="1.1" id="레이어_1" xmlns="http://www.w3.org/2000/svg" xmlns:xlink="http://www.w3.org/1999/xlink" x="0px"
	 y="0px" viewBox="0 0 80 80" style="enable-background:new 0 0 80 80;" xml:space="preserve">
<style type="text/css">
	.st0{fill:#A7C636;}
	.st1{fill:#FFFFFF;}
	.st2{fill:#000333;}
</style>
<g>
	
		<g id="_x34_38_x2C__Cloud_x2C__Coding_x2C__Develop_x2C__Development_x2C__Programming_00000135679872377192481780000013181077189720610705_">
		<g>
			<g>
				<polygon class="st0" points="19.4,73.2 13.5,79.1 7.6,73.2 8.5,72.4 18.6,72.4 				"/>
				<polygon class="st1" points="20.2,1.9 20.2,8.6 18.6,8.6 8.5,8.6 6.8,8.6 6.8,1.9 				"/>
				<polygon class="st0" points="20.2,72.4 19.4,73.2 18.6,72.4 8.5,72.4 7.6,73.2 6.8,72.4 6.8,8.6 8.5,8.6 18.6,8.6 20.2,8.6 				
					"/>
				<path class="st1" d="M28.7,1.9v77.3c1.5,0,45.3,0,50.4,0V1.9H28.7z"/>
				<polygon class="st1" points="52.2,1.9 52.2,28.8 45.5,22 38.8,28.8 38.8,1.9 				"/>
				<path class="st2" d="M65,61l-1.5,2.7c0,0-0.3-0.1-0.4-0.3c-0.5-0.3-1.2-0.7-2.1-0.9c-0.4-0.1-0.8-0.1-1.3-0.1
					c-0.9,0-1.7,0.3-1.7,1.2c0,0.3,0,0.4,0.1,0.5c0.1,0.1,0.3,0.3,0.5,0.4c0.9,0.4,2.3,0.7,4,1.3c1.9,0.8,2.6,2,2.6,3.8
					c0,0.8-0.1,1.5-0.4,2c-0.7,1.1-1.6,1.7-3,2.2c-1.7,0.4-3.6,0.3-5.2-0.3c-0.9-0.3-2-0.7-3-1.3l1.5-2.8c0,0,0.3,0.1,0.5,0.4
					c0.5,0.4,1.5,0.8,2.6,1.1c0.5,0.1,1.1,0.3,1.6,0.3c1.2,0,1.7-0.4,1.7-1.1c0-0.3-0.1-0.5-0.3-0.7c-1.1-1.1-4.4-1.1-6-2.7
					c-0.7-0.7-0.9-1.5-0.9-2.4c0-2.8,2.3-4.7,5.2-4.7c1.3,0,2.8,0.4,4.2,0.9C64.3,60.6,64.7,60.7,65,61z"/>
				<rect x="58.9" y="42.2" class="st2" width="3.4" height="3.4"/>
				<rect x="52.2" y="42.2" class="st2" width="3.4" height="3.4"/>
				<rect x="45.5" y="42.2" class="st2" width="3.4" height="3.4"/>
				<path class="st2" d="M45.4,70.8c0.4,0.1,0.9,0.3,1.5,0.3c1.2,0,2-0.5,2.2-2.4c0.1-1.3,0-2.4,0.1-9.1h3.4
					c0,7.8,0.3,10.5-0.9,12.5c-0.4,0.7-0.9,1.1-1.6,1.5c-0.8,0.4-1.7,0.5-3,0.5c-1.2,0-2.3-0.3-3.1-0.9l0.7-2.7
					C44.5,70.5,44.8,70.7,45.4,70.8z"/>
				<path class="st2" d="M67.3,50.5h-3.4c-0.9,0-1.7-0.8-1.7-1.7c0-0.9,0.8-1.7,1.7-1.7h1.7v-1.7c0-0.5,0.3-0.9,0.5-1.3l0.1-0.1
					h-0.1c-0.4-0.3-0.5-0.8-0.5-1.3v-2.1h-1.7c-0.9,0-1.7-0.8-1.7-1.7c0-0.9,0.8-1.7,1.7-1.7h3.4c0.9,0,1.7,0.8,1.7,1.7v3l1.1,0.9
					c0.4,0.3,0.5,0.8,0.5,1.3c0,0.5-0.3,0.9-0.5,1.3L69,46.1v2.7C69,49.7,68.2,50.5,67.3,50.5z"/>
				<path class="st2" d="M43.7,50.5h-3.4c-0.9,0-1.7-0.8-1.7-1.7v-2.7l-1.1-0.9c-0.4-0.3-0.5-0.8-0.5-1.3c0-0.5,0.3-0.9,0.5-1.3
					l1.1-0.9v-3c0-0.9,0.8-1.7,1.7-1.7h3.4c0.9,0,1.7,0.8,1.7,1.7c0,0.9-0.8,1.7-1.7,1.7H42v2.1c0,0.5-0.3,0.9-0.5,1.3l-0.1,0.1
					l0.1,0.1c0.4,0.3,0.5,0.8,0.5,1.3v1.7h1.7c0.9,0,1.7,0.8,1.7,1.7C45.5,49.9,44.7,50.5,43.7,50.5z"/>
				<path class="st2" d="M79.1,80.8H28.7c-0.9,0-1.7-0.8-1.7-1.7V1.9c0-0.9,0.8-1.7,1.7-1.7h10.1c0.9,0,1.7,0.8,1.7,1.7
					c0,0.9-0.8,1.7-1.7,1.7h-8.5v73.9h47v-74H52.2c-0.9,0-1.7-0.8-1.7-1.7c0-0.9,0.8-1.7,1.7-1.7h26.9c0.9,0,1.7,0.8,1.7,1.7V79
					C80.7,80,79.9,80.8,79.1,80.8z"/>
				<path class="st2" d="M12.3,80.2l-6.7-6.7C5.3,73.2,5,72.7,5,72.3V1.9c0-0.9,0.8-1.7,1.7-1.7h13.4c0.9,0,1.7,0.8,1.7,1.7v70.5
					c0,0.4-0.1,0.8-0.5,1.2l-6.7,6.7C14,80.9,13,80.9,12.3,80.2z M8.5,71.6l5.1,5.1l5.1-5.1V3.5H8.7v68.1H8.5z"/>
				<path class="st2" d="M1.8,25.4c-0.9,0-1.7-0.8-1.7-1.7v-15c0-0.9,0.8-1.7,1.7-1.7h16.8c0.9,0,1.7,0.8,1.7,1.7
					c0,0.9-0.8,1.7-1.7,1.7H3.4v13.4C3.4,24.6,2.6,25.4,1.8,25.4z"/>
				<path class="st2" d="M18.6,74H8.5c-0.9,0-1.7-0.8-1.7-1.7c0-0.9,0.8-1.7,1.7-1.7h10.1c0.9,0,1.7,0.8,1.7,1.7
					C20.2,73.2,19.4,74,18.6,74z"/>
				<path class="st2" d="M13.5,65.7c-0.9,0-1.7-0.8-1.7-1.7v-47c0-0.9,0.8-1.7,1.7-1.7c0.9,0,1.7,0.8,1.7,1.7v47
					C15.3,64.9,14.4,65.7,13.5,65.7z"/>
				<path class="st2" d="M52.2,30.4c-0.4,0-0.8-0.1-1.2-0.5l-5.5-5.5L40,29.8c-0.5,0.5-1.2,0.7-1.9,0.4C37.4,30,37,29.4,37,28.6V1.7
					C37,0.8,37.8,0,38.8,0h13.4C53.1,0,54,0.8,54,1.7v26.9c0,0.7-0.4,1.3-1.1,1.6C52.6,30.4,52.3,30.4,52.2,30.4z M45.5,20.3
					c0.4,0,0.8,0.1,1.2,0.5l3.9,3.9V3.5H40.5v21.1l3.9-3.9C44.5,20.4,45,20.3,45.5,20.3z"/>
			</g>
		</g>
	</g>
	<g id="Layer_1_00000175302001508624877400000008596065780245144236_">
	</g>
</g>
</svg>
