<?xml version="1.0" encoding="utf-8"?>
<!-- Generator: Adobe Illustrator 27.2.0, SVG Export Plug-In . SVG Version: 6.00 Build 0)  -->
<svg version="1.1" id="레이어_1" xmlns="http://www.w3.org/2000/svg" xmlns:xlink="http://www.w3.org/1999/xlink" x="0px"
	 y="0px" viewBox="0 0 80 80" style="enable-background:new 0 0 80 80;" xml:space="preserve">
<style type="text/css">
	.st0{fill:#A7C636;}
	.st1{fill:#000333;}
</style>
<g>
	<g>
		<g>
			
				<g id="_x34_26_x2C__Coding_x2C__Develop_x2C__Development_x2C__Flowchart_x2C__Programming_00000114035070832054743100000013887705573601008526_">
				<g>
					<g>
						<path class="st0" d="M70,26.6c1.9,0,3.3,1.5,3.3,3.3c0,1.9-1.5,3.3-3.3,3.3c-1.9,0-3.3-1.5-3.3-3.3
							C66.7,28.1,68.2,26.6,70,26.6z"/>
						<path class="st0" d="M10.1,48.4c1.9,0,3.3,1.5,3.3,3.3c0,1.9-1.5,3.3-3.3,3.3c-1.9,0-3.3-1.5-3.3-3.3
							C6.8,49.8,8.2,48.4,10.1,48.4z"/>
						<path class="st0" d="M63.3,55.6c0.5,0.1,1.1,0.4,1.5,0.7l-0.9,1.9c0,0-0.1-0.1-0.3-0.3c-0.4-0.3-0.8-0.4-1.3-0.5
							c-0.5-0.1-1.2-0.3-1.7,0.1c-0.1,0.1-0.3,0.4-0.3,0.5c0,1.3,3.7,0.8,4.7,2.9c0.3,0.7,0.3,1.7-0.1,2.5c-0.4,0.8-1.1,1.2-1.9,1.5
							c-1.5,0.4-2.9,0.1-4.4-0.5c-0.3-0.1-0.7-0.3-0.9-0.5l0.9-1.9c0,0,0.1,0.1,0.4,0.3c0.4,0.3,0.9,0.5,1.6,0.7
							c0.4,0.1,0.7,0.1,1.1,0.1c0.8,0,1.1-0.3,1.1-0.7c0-0.9-1.9-0.9-3.3-1.7c-0.5-0.3-1.1-0.7-1.2-1.2c-0.3-0.5-0.3-1.6,0.1-2.3
							c0.1-0.4,0.4-0.7,0.8-0.9C59.9,55.2,61.4,54.9,63.3,55.6z"/>
						<path class="st0" d="M50.9,62.1c0.4,0.3,0.9,0.5,1.6,0.7c0.4,0.1,0.7,0.1,1.1,0.1c0.8,0,1.1-0.3,1.1-0.7
							c0-0.9-1.9-0.9-3.3-1.7c-0.9-0.5-1.3-1.1-1.3-2.3c0-1.5,0.8-2.5,2.1-2.9c1.6-0.5,3.3,0,4.7,0.8L55.8,58c0,0-0.1-0.1-0.3-0.3
							c-0.3-0.3-0.8-0.4-1.3-0.5C53.9,57,53.7,57,53.4,57c-0.7,0-1.2,0.1-1.2,0.8c0,0.9,1.5,0.9,3.1,1.6C56.5,60,57,60.8,57,62
							c0,0.5-0.1,0.9-0.3,1.3c-0.1,0.4-0.4,0.7-0.8,0.9c-1.6,1.2-4.7,0.7-6.4-0.5c1.3-2.7,0.8-1.7,0.9-1.9
							C50.6,61.8,50.7,62,50.9,62.1z"/>
						<path class="st0" d="M47.7,55.8c0.7,0.4,1.1,0.9,1.3,1.5l-1.6,1.2c-0.3-0.8-0.9-1.3-1.9-1.3c-0.4,0-0.7,0.1-0.9,0.3
							c-0.3,0.1-0.5,0.4-0.7,0.7c-0.7,1.1-0.8,2.8,0.1,4c0.7,0.9,1.9,1.1,2.7,0.5c0.4-0.3,0.7-0.5,0.8-1.1l1.7,1.1
							c-0.8,1.9-3.6,2.8-5.5,1.9c-1.7-0.9-2.7-2.8-2.7-4.5c0-1.1,0.4-2.3,1.2-3.2c0.4-0.4,0.8-0.8,1.3-1.1
							C44.9,55,46.5,55,47.7,55.8z"/>
						<polygon class="st1" points="37.3,18.4 37.3,8.5 39.3,8.5 39.3,16.4 43.4,16.4 43.4,18.4 						"/>
						<polygon class="st1" points="35.5,8.5 35.5,18.4 33.7,18.4 33.7,12.4 31.8,16.7 30.7,16.7 28.9,12.4 28.9,18.4 26.9,18.4 
							26.9,8.5 29,8.5 31.3,13.6 33.4,8.5 						"/>
						<polygon class="st1" points="23.3,10.5 23.3,18.4 21.3,18.4 21.3,10.5 18.6,10.5 18.6,8.5 25.8,8.5 25.8,10.5 						"/>
						<polygon class="st1" points="17.7,8.5 17.7,18.4 15.7,18.4 15.7,14.3 12.2,14.3 12.2,18.4 10.2,18.4 10.2,8.5 12.2,8.5 
							12.2,12.3 15.7,12.3 15.7,8.5 						"/>
						<path class="st1" d="M14.2,33c-0.5-0.4-0.8-0.9-0.8-1.6l0.7-4.8H1.7c-0.9,0-1.7-0.8-1.7-1.7V1.7C0,0.8,0.8,0,1.7,0h50
							c0.9,0,1.7,0.8,1.7,1.7v23.3c0,0.9-0.8,1.7-1.7,1.7H26.2l-10.3,6.4C15.4,33.4,14.7,33.4,14.2,33z M3.4,23.3h12.7
							c1.1,0,1.7,0.9,1.6,1.9l-0.4,3.1l7.6-4.8c0.3-0.1,0.5-0.3,0.9-0.3h24.3V3.3H3.4V23.3z"/>
						<path class="st0" d="M40.9,79.7c-0.5-0.4-0.8-0.9-0.8-1.6l0.7-4.8H28.3c-0.9,0-1.7-0.8-1.7-1.7V48.4c0-0.9,0.8-1.7,1.7-1.7h50
							c0.9,0,1.7,0.8,1.7,1.7v23.3c0,0.9-0.8,1.7-1.7,1.7H52.9l-10.3,6.4C42.1,80.1,41.4,80.1,40.9,79.7z M30.1,70h12.7
							c1.1,0,1.7,0.9,1.6,1.9l-0.4,3.1l7.6-4.8c0.3-0.1,0.5-0.3,0.9-0.3h24.3V50H30.1V70z"/>
						<path class="st1" d="M21.9,60h-5.1c-2.3,0-4.3-1.6-4.9-3.7c1.8-0.8,3.1-2.6,3.1-4.7c0-2.1-1.3-4-3.2-4.7
							c0.6-2.1,2.5-3.6,4.8-3.6h5.1c0.8,0,1.7-0.8,1.7-1.7c0-0.9-0.8-1.7-1.7-1.7h-5.1c-4.2,0-7.6,3.1-8.3,6.9
							c-2,0.7-3.5,2.5-3.5,4.8c0,2.2,1.5,4.1,3.5,4.8c0.7,4,4.2,6.9,8.3,6.9h5.1c0.8,0,1.6-0.8,1.9-1.6C23.7,60.8,22.9,60,21.9,60z
							 M10.1,50c0.9,0,1.7,0.8,1.7,1.7c0,0.9-0.8,1.7-1.7,1.7c-0.9,0-1.7-0.8-1.7-1.7C8.4,50.8,9.2,50,10.1,50z"/>
						<path class="st1" d="M75.1,30c0-2.2-1.4-4-3.3-4.7V14.9c0-0.9-0.8-1.7-1.7-1.7H58.3c-0.9,0-1.7,0.8-1.7,1.7
							c0,0.9,0.8,1.7,1.7,1.7h10v8.6C66.4,25.9,65,27.8,65,30c0,2.2,1.5,4.1,3.5,4.8v5.1h-35c-0.9,0-1.7,0.8-1.7,1.7
							c0,0.9,0.8,1.7,1.7,1.7H70c0.9,0,1.7-0.8,1.9-1.7v-6.9C73.8,33.9,75.1,32.1,75.1,30z M70,28.4c0.9,0,1.7,0.7,1.7,1.7
							c0,0.9-0.8,1.7-1.7,1.7s-1.7-0.8-1.7-1.7C68.3,29.2,69.1,28.4,70,28.4z"/>
					</g>
				</g>
			</g>
			<g id="Layer_1_00000093861951284126205960000009671624928025789064_">
			</g>
		</g>
	</g>
</g>
</svg>
