<?xml version="1.0" encoding="utf-8"?>
<!-- Generator: Adobe Illustrator 27.2.0, SVG Export Plug-In . SVG Version: 6.00 Build 0)  -->
<svg version="1.1" id="레이어_1" xmlns="http://www.w3.org/2000/svg" xmlns:xlink="http://www.w3.org/1999/xlink" x="0px"
	 y="0px" viewBox="0 0 80 80" style="enable-background:new 0 0 80 80;" xml:space="preserve">
<style type="text/css">
	.st0{fill:#A7C636;}
</style>
<circle class="st0" cx="72.9" cy="73.1" r="4.3"/>
<g id="_x32_98_x2C__web_x2C__atom_x2C__coding">
	<g>
		<path d="M66.5,67.1C69.6,64,69.4,58.3,66,51c7.7-2.8,12-6.7,12-10.9s-4.2-8.3-12-10.9c3.5-7.3,3.6-13,0.5-16.1
			c-3.1-3.1-8.9-2.8-16.3,0.5C47.4,6,43.5,1.7,39.2,1.7c-4.3,0-8.3,4.1-11,11.8C20.7,10.1,15,10,11.9,13c-3.1,3.1-2.8,8.8,0.5,16.1
			c-7.7,2.8-12,6.7-12,10.9s4.2,8.3,12,10.9c-3.5,7.3-3.6,13-0.5,16.1c1.5,1.5,3.5,2.1,6.1,2.1c2.8,0,6.3-0.9,10.2-2.7
			c2.8,7.6,6.7,11.8,11,11.8c4.3,0,8.3-4.1,11-11.8c3.9,1.9,7.4,2.7,10.2,2.7C63,69.2,65,68.6,66.5,67.1z M74.5,40.1
			c0,2.8-3.8,5.7-10.1,8c-1.5-2.7-3.2-5.3-5.3-8c2-2.7,3.8-5.3,5.3-8C70.8,34.3,74.5,37.3,74.5,40.1z M44,51.6
			c-3.1,0.1-6.5,0.1-9.7,0c-2.3-2.1-4.7-4.4-6.9-6.8c-0.1-3.1-0.1-6.3,0-9.6c2-2.3,4.3-4.5,6.9-6.8c3.2-0.1,6.5-0.1,9.7,0
			c2.4,2.1,4.7,4.4,6.9,6.8c0.1,3.1,0.1,6.4,0,9.6C48.8,47.1,46.5,49.4,44,51.6z M54.3,39.3c0.3,0.3,0.4,0.5,0.7,0.8
			c-0.3,0.3-0.4,0.5-0.7,0.8C54.3,40.2,54.3,39.9,54.3,39.3z M54.1,33.9c-0.1-1.5-0.3-2.9-0.4-4.4c2.7,0.4,5.1,0.9,7.4,1.6
			c-1.2,2-2.6,4.1-4,6.3C56.2,36.2,55.1,35,54.1,33.9z M50.4,30.1c-0.4-0.4-0.7-0.7-1.1-1.1c0.3,0,0.7,0.1,0.9,0.1
			C50.4,29.4,50.4,29.7,50.4,30.1z M45.4,25.3c-1.1-0.9-2.3-2-3.4-2.9c2.2-1.6,4.3-2.9,6.3-4c0.7,2.3,1.2,4.7,1.6,7.3
			C48.3,25.4,46.9,25.4,45.4,25.3z M40,25.2c-0.7,0-0.9,0-1.6,0c0.3-0.3,0.5-0.4,0.8-0.7C39.5,24.6,39.7,24.9,40,25.2z M33,25.3
			c-1.5,0.1-3,0.3-4.4,0.4c0.4-2.7,0.9-5.1,1.6-7.3c2,1.1,4.2,2.5,6.3,4C35.3,23.3,34.1,24.2,33,25.3z M29,28.9
			c-0.4,0.4-0.7,0.7-1.1,1.1c0-0.3,0.1-0.7,0.1-0.9C28.3,29,28.7,29,29,28.9z M24.2,33.9c-0.9,1.1-2,2.3-3,3.3c-1.6-2.1-3-4.3-4-6.3
			c2.3-0.7,4.7-1.2,7.4-1.6C24.4,31,24.2,32.5,24.2,33.9z M24,39.3c0,0.7,0,0.9,0,1.6c-0.3-0.3-0.4-0.5-0.7-0.8
			C23.6,39.8,23.8,39.5,24,39.3z M24.2,46.2c0.1,1.5,0.3,2.9,0.4,4.4c-2.7-0.4-5.1-0.9-7.4-1.6c1.1-2,2.6-4.1,4-6.3
			C22.2,43.9,23.2,45.1,24.2,46.2z M27.9,50c0.4,0.4,0.7,0.7,1.1,1.1c-0.3,0-0.7-0.1-0.9-0.1C28,50.7,27.9,50.4,27.9,50z M33,54.8
			c1.1,1.1,2.3,2,3.4,2.9c-2.2,1.6-4.3,2.9-6.3,4c-0.7-2.3-1.2-4.7-1.6-7.3C29.9,54.7,31.4,54.7,33,54.8z M38.4,55
			c0.7,0,0.9,0,1.6,0c-0.3,0.3-0.5,0.4-0.8,0.7C38.9,55.5,38.7,55.2,38.4,55z M45.4,54.8c1.5-0.1,3-0.3,4.4-0.4
			c-0.4,2.7-0.9,5.1-1.6,7.3c-2-1.2-4.2-2.5-6.3-4C43.1,56.8,44.2,55.9,45.4,54.8z M49.3,51.2c0.4-0.4,0.7-0.7,1.1-1.1
			c0,0.3-0.1,0.7-0.1,0.9C50,51.1,49.7,51.1,49.3,51.2z M54.1,46.2c1.1-1.1,2-2.3,3-3.3c1.6,2.1,3,4.3,4,6.3
			c-2.3,0.7-4.7,1.2-7.4,1.6C53.9,49.1,54,47.7,54.1,46.2z M64.1,15.3c1.9,1.9,1.5,6.5-1.2,12.4c0,0.1-0.1,0.3-0.1,0.4
			c-2.8-0.8-6.1-1.5-9.4-2c-0.5-3.3-1.2-6.4-2-9.3c3.6-1.7,6.9-2.7,9.2-2.7C62.1,14.2,63.3,14.5,64.1,15.3z M39.2,5.1
			c2.8,0,5.8,3.7,8.1,10c-2.7,1.5-5.4,3.2-8.1,5.2c-2.7-2-5.4-3.7-8.1-5.2C33.4,8.8,36.4,5.1,39.2,5.1z M14.1,15.3
			c0.8-0.8,2-1.2,3.6-1.2c2.4,0,5.5,0.9,9.2,2.7c-0.8,2.8-1.5,6-2,9.3c-3.4,0.5-6.5,1.2-9.4,2C12.7,22,12.1,17.3,14.1,15.3z
			 M3.8,40.1c0-2.8,3.8-5.7,10.1-8c1.5,2.7,3.2,5.3,5.3,8c-2,2.7-3.8,5.3-5.3,8C7.5,45.8,3.8,42.9,3.8,40.1z M14.1,64.8
			c-2-2-1.5-6.7,1.5-12.6c2.8,0.8,6.1,1.5,9.4,2c0.5,3.3,1.2,6.4,2,9.3c-0.1,0-0.3,0.1-0.4,0.1C20.7,66.3,16.2,66.7,14.1,64.8z
			 M39.2,75.1c-2.8,0-5.8-3.7-8.1-10c2.7-1.5,5.4-3.2,8.1-5.2c2.7,2,5.4,3.7,8.1,5.2C45,71.3,42,75.1,39.2,75.1z M51.3,63.4
			c0.8-2.8,1.5-6,2-9.3c3.4-0.5,6.5-1.2,9.4-2c0,0.1,0.1,0.3,0.1,0.4c2.7,5.9,3.2,10.4,1.2,12.4c-1.9,1.9-6.6,1.5-12.5-1.2
			C51.6,63.5,51.4,63.4,51.3,63.4z"/>
		<path class="st0" d="M35.3,42.2l-2.2-2.1l2.2-2.1c0.7-0.7,0.7-1.7,0-2.4c-0.7-0.7-1.8-0.7-2.4,0l-3.4,3.3c-0.7,0.7-0.7,1.7,0,2.4
			l3.4,3.3c0.7,0.7,1.8,0.7,2.4,0C36,43.9,36,42.9,35.3,42.2z"/>
		<path class="st0" d="M48.8,38.9l-3.4-3.3c-0.7-0.7-1.8-0.7-2.4,0c-0.7,0.7-0.7,1.7,0,2.4l2.2,2.1L43,42.2c-0.7,0.7-0.7,1.7,0,2.4
			c0.7,0.7,1.8,0.7,2.4,0l3.4-3.3C49.4,40.6,49.4,39.5,48.8,38.9z"/>
		<path class="st0" d="M41.3,33.5c-0.9-0.3-1.9,0.1-2.2,1.1l-3.4,10c-0.3,0.9,0.1,1.9,1.1,2.1c0.9,0.3,1.9-0.1,2.2-1.1l3.4-10
			C42.7,34.7,42.3,33.8,41.3,33.5z"/>
		<path d="M7.1,66.7C4.3,66.7,2,69,2,71.7c0,2.8,2.3,5.1,5.1,5.1c2.8,0,5.1-2.3,5.1-5.1C12.3,69,10,66.7,7.1,66.7z M7.1,73.3
			c-0.9,0-1.8-0.8-1.8-1.7s0.8-1.7,1.8-1.7s1.8,0.8,1.8,1.7S8.1,73.3,7.1,73.3z"/>
		<path d="M69.5,10.1c2.8,0,5.1-2.3,5.1-5.1c0-2.8-2.3-5.1-5.1-5.1c-2.8,0-5.1,2.3-5.1,5.1C64.4,7.9,66.7,10.1,69.5,10.1z M69.5,3.5
			c0.9,0,1.7,0.8,1.7,1.7c0,0.9-0.8,1.7-1.7,1.7c-0.9,0-1.8-0.8-1.8-1.7C67.7,4.3,68.5,3.5,69.5,3.5z"/>
		<path d="M72.9,66.7c-3.8,0-6.7,2.9-6.7,6.7s3,6.7,6.7,6.7c3.8,0,6.7-2.9,6.7-6.7S76.5,66.7,72.9,66.7z M72.9,76.7
			c-1.9,0-3.4-1.5-3.4-3.3S71,70,72.9,70c1.9,0,3.4,1.5,3.4,3.3S74.7,76.7,72.9,76.7z"/>
		<path class="st0" d="M71.1,21.7c1,0,1.7,0.8,1.7,1.7c0,1-0.8,1.7-1.7,1.7c-1,0-1.8-0.8-1.8-1.7C69.4,22.5,70.1,21.7,71.1,21.7z"/>
		<path d="M72.9,55c1,0,1.8,0.8,1.8,1.7c0,1-0.8,1.7-1.8,1.7c-1,0-1.7-0.8-1.7-1.7C71.1,55.8,71.9,55,72.9,55z"/>
		<path d="M24,70c1,0,1.8,0.8,1.8,1.7c0,1-0.8,1.7-1.8,1.7c-1,0-1.8-0.8-1.8-1.7C22.2,70.8,23,70,24,70z"/>
		<path d="M3.8,51.6c1,0,1.8,0.8,1.8,1.7c0,1-0.8,1.7-1.8,1.7c-1,0-1.8-0.8-1.8-1.7C2,52.4,2.8,51.6,3.8,51.6z"/>
		<path class="st0" d="M3.8,10c1,0,1.8,0.8,1.8,1.7s-0.8,1.7-1.8,1.7c-1,0-1.8-0.8-1.8-1.7S2.8,10,3.8,10z"/>
		<path d="M20.6,5.1c1,0,1.8,0.8,1.8,1.7c0,1-0.8,1.7-1.8,1.7c-1,0-1.8-0.8-1.8-1.7C18.9,5.8,19.6,5.1,20.6,5.1z"/>
	</g>
</g>
</svg>
