<?xml version="1.0" encoding="utf-8"?>
<!-- Generator: Adobe Illustrator 27.2.0, SVG Export Plug-In . SVG Version: 6.00 Build 0)  -->
<svg version="1.1" id="레이어_1" xmlns="http://www.w3.org/2000/svg" xmlns:xlink="http://www.w3.org/1999/xlink" x="0px"
	 y="0px" viewBox="0 0 256 256" style="enable-background:new 0 0 256 256;" xml:space="preserve">
<style type="text/css">
	.st0{fill:#FFFFFF;}
</style>
<g>
	<path class="st0" d="M73.9,204.9L73.9,204.9l-2,7.2L73.9,204.9L73.9,204.9z"/>
	<path class="st0" d="M84.2,220.4l-2.2,0L84.2,220.4z"/>
	<path class="st0" d="M83.7,231.1L83.7,231.1l-13.3,0L83.7,231.1L83.7,231.1z"/>
	<path class="st0" d="M86.5,220.4l-2.2,0L86.5,220.4z"/>
	<path class="st0" d="M84.8,230.2l2.3-8.9L84.8,230.2L84.8,230.2L84.8,230.2z"/>
	<path class="st0" d="M133.9,189.4l-4.3,20.3C129.6,209.7,133.9,189.4,133.9,189.4z"/>
	<path class="st0" d="M122.8,189.4l-3.3,15.2L122.8,189.4L122.8,189.4z"/>
	<path class="st0" d="M133.2,188.5h-9.2c-0.5,0-1,0.4-1.1,0.9l-3.3,15.2l-3.3,15.2c-0.1,0.5-0.6,0.9-1.1,0.9h-5.6h-0.9
		c-6.5,0-5.7-4.5-4.4-10.6c0-0.1,0-0.1,0-0.2l0.1-0.8c0,0,0-0.1,0-0.1l0.3-1.6l0.3-1.7c0.1-0.5,0.2-1.3,0.3-1.7l1.5-7.3l1.5-7.3
		c0.1-0.5-0.2-0.9-0.7-0.9h-9.5c-0.5,0-1,0.4-1.1,0.9l-2,9.7l-2,9.7c0,0,0,0,0,0l-0.2,0.9c-2.4,10.7-1.7,21,11,21.3
		c0.2,0,0.4,0,0.4,0h20.1c0.5,0,1-0.4,1.1-0.9l4.3-20.3l4.3-20.3C134,188.9,133.7,188.5,133.2,188.5L133.2,188.5z"/>
	<path class="st0" d="M170.1,220.8c0.5,0,0.8,0.4,0.7,0.9l-0.9,4.4"/>
	<path class="st0" d="M169,230.5l0.9-4.4L169,230.5C169,230.5,169,230.5,169,230.5L169,230.5z"/>
	<path class="st0" d="M167.9,231.4C167.9,231.4,167.9,231.4,167.9,231.4c-2.7,0-10.9,0.1-17,0.1
		C158.3,231.5,167.9,231.4,167.9,231.4L167.9,231.4z"/>
	<path class="st0" d="M145.3,215.1c0-0.5,0.5-1.3,1.1-1.3l-1.2,0C144.7,219,145.3,215.1,145.3,215.1L145.3,215.1z"/>
	<path class="st0" d="M151.7,231.5c-0.1,0-0.1,0-0.2,0C151.6,231.5,151.6,231.5,151.7,231.5z"/>
	<path class="st0" d="M170.1,220.8c0.5,0,0.8,0.4,0.7,0.9l-0.9,4.4l-0.1,0.7"/>
	<path class="st0" d="M156.1,231.5L156.1,231.5L156.1,231.5z"/>
	<path class="st0" d="M153.8,231.5h-0.1H153.8z"/>
	<path class="st0" d="M153.1,231.5c-0.1,0-0.1,0-0.2,0C153,231.5,153,231.5,153.1,231.5z"/>
	<path class="st0" d="M152.4,231.5h-0.2H152.4z"/>
	<path class="st0" d="M153.7,231.5c-0.2,0-0.4,0-0.6,0C153.3,231.5,153.5,231.5,153.7,231.5z"/>
	<path class="st0" d="M156,231.5c-0.7,0-1.5,0-2.2,0C154.5,231.5,155.3,231.5,156,231.5z"/>
	<path class="st0" d="M167.9,231.4L167.9,231.4c-2,0-6.9,0.1-11.8,0.1C161,231.5,165.9,231.4,167.9,231.4z"/>
	<path class="st0" d="M169,230.5l0.8-3.7L169,230.5C169,230.5,169,230.5,169,230.5L169,230.5z"/>
	<path class="st0" d="M152.9,231.5h-0.5H152.9z"/>
	<path class="st0" d="M151.5,231.5h-0.7H151.5z"/>
	<path class="st0" d="M152.2,231.5h-0.5H152.2z"/>
	<path class="st0" d="M16.9,215.2l1.4-6.4l-1.6,7.3l-1.6,7.4l1.4-6.5C16.6,216.6,16.8,215.7,16.9,215.2L16.9,215.2z"/>
	<path class="st0" d="M34.1,188.4H24c-0.5,0-1,0.4-1.1,0.9l-1,4.3l-1,4.3c-0.1,0.5,0.2,0.9,0.7,0.9h10.2c0.5,0,1-0.4,1.1-0.9
		l0.9-4.3l0.9-4.2v0C35,188.8,34.6,188.4,34.1,188.4L34.1,188.4z"/>
	<path class="st0" d="M31.9,202.5L31.9,202.5l-3,13.8L31.9,202.5z"/>
	<path class="st0" d="M2.4,248.2c0,0,5.1,0.1,8.4,0.1C8.3,248.2,4.2,248.2,2.4,248.2C2.4,248.2,2.4,248.2,2.4,248.2L2.4,248.2z"/>
	<path class="st0" d="M19.8,202.5l-1.4,6.4L19.8,202.5z"/>
	<path class="st0" d="M31.2,201.6H20.9c-0.5,0-1,0.4-1.1,0.9l-1.4,6.4l-1.4,6.4c-0.1,0.5-0.3,1.3-0.4,1.8l-1.4,6.5l-1.4,6.5
		c-0.1,0.5-0.3,1.3-0.5,1.8c0,0-1.9,5.7-5.1,5.6c-0.1,0-0.3,0-0.4,0c-1.6,0-2.8-0.1-2.8-0.1h0c-0.5,0-1,0.4-1.1,0.9l-1.1,4.5
		l-1.1,4.5c-0.1,0.5,0.2,0.9,0.7,0.9c1.8,0,5.9,0.1,8.4,0.1c8,0,12.3-4.4,15-17.3l3.2-14.7l3-13.8C32,202,31.7,201.6,31.2,201.6
		L31.2,201.6z"/>
	<path class="st0" d="M176.6,231c-0.5,0-0.8-0.4-0.7-0.9l7.7-36.1"/>
	<path class="st0" d="M187.3,230.1l3.1-15.4L187.3,230.1z"/>
	<path class="st0" d="M176,230.5c-0.1-0.3,0-0.9,0.1-1.4l3.7-17.1l-3.8,18c-0.1,0.5,0.2,0.9,0.7,0.9h0.9
		C177,231,176,230.8,176,230.5L176,230.5z"/>
	<path class="st0" d="M186.7,230.8c-0.3,0.1-0.9,0.2-1.4,0.2h0.9c0.5,0,1-0.4,1.1-0.9l0.2-0.9C187.4,229.6,187,230.7,186.7,230.8
		L186.7,230.8z"/>
	<path class="st0" d="M188.8,222.4l1.4-6.8c0,0,0,0,0,0L188.8,222.4L188.8,222.4z"/>
	<path class="st0" d="M219.2,196.4l0.4,1.8c0.1,0.5-0.2,0.9-0.7,0.9"/>
	<path class="st0" d="M187.5,229.1l1.4-6.8L187.5,229.1z"/>
	<path class="st0" d="M218.8,194.6l0.4,1.8L218.8,194.6z"/>
	<path class="st0" d="M190.2,215.6c0.1-0.5,0.3-1.3,0.4-1.8l1.5-6.9l-1.7,7.8L190.2,215.6L190.2,215.6z"/>
	<path class="st0" d="M183.7,193.4c-0.1,0.5-0.2,1.1-0.3,1.5l-3.7,17.1l3.8-18L183.7,193.4L183.7,193.4z"/>
	<path class="st0" d="M219.6,198.2l-0.4-1.8l-0.4-1.8l-0.2-0.9c-0.8-3.2-3.3-5.1-8.6-5.1l-8.3,0l-7.6,0h-0.7h-7.9
		c-0.5,0-1,0.4-1.1,0.9h0l-0.4,1.8l-0.4,2.1l-0.1,0.6l-3.8,18l-3.7,17.1c-0.1,0.5-0.1,1.1-0.1,1.4c0.1,0.3,1,0.5,1.6,0.5h7.7
		c0.5,0,1.2-0.1,1.4-0.2c0.3-0.1,0.7-1.1,0.8-1.6l1.4-6.8l1.4-6.8c0,0,0,0,0,0l0.2-0.9l1.7-7.8l1.5-6.9c0.1-0.5,0.6-0.9,1.1-0.9
		l24.3,0C219.4,199.1,219.8,198.7,219.6,198.2L219.6,198.2z"/>
	<path class="st0" d="M250.9,182.3c-0.5,0-1.4,0-1.9,0h-7.8c-0.5,0-1.2,0.3-1.5,0.8l-17.2,25.2c-0.3,0.4-0.6,0.4-0.7-0.1l-1.3-5.5
		c-0.1-0.5-0.6-0.9-1.1-0.9h-11c-0.5,0-0.8,0.4-0.7,0.9l4.9,17.3c0.1,0.5,0.2,1.3,0,1.8l-2.2,8.4c-0.1,0.5,0.2,0.9,0.7,0.9h10.9
		c0.5,0,1-0.4,1.2-0.9l2.2-8.4c0.1-0.5,0.5-1.2,0.8-1.7l27.9-37c0.3-0.4,0.1-0.7-0.4-0.7L250.9,182.3L250.9,182.3z"/>
	<path class="st0" d="M163.2,204L163.2,204c-0.1,0.5-0.6,1-1.1,1h-14c-0.5,0-0.7-0.3-0.7-0.7c0,0,0,0,0,0c0,0,0,0,0,0c0,0,0,0,0,0
		c0,0,0-0.1,0.1-0.2c1.3-3.6,4.1-5.9,9.2-5.9C162.4,198,163.5,200.9,163.2,204L163.2,204z M159,187.9c-18,0-22.2,10.9-24.6,21.9
		c-2.4,11.2-2.2,21.7,16.4,21.7h0.7c0.1,0,0.1,0,0.2,0h0.5h0.2h0.5c0.1,0,0.1,0,0.2,0c0.2,0,0.4,0,0.6,0h0.1c0.7,0,1.5,0,2.2,0h0
		c4.9,0,9.8-0.1,11.8-0.1c0.5,0,1-0.4,1.1-0.9l0.8-3.7l0.1-0.7l0.9-4.4c0.1-0.5-0.2-0.9-0.7-0.9h-16.7c-6.6,0-8.6-1.8-7.9-7h26.7
		l0,0c0,0,0,0,0,0c0.4,0,0.8-0.3,1-0.7c0-0.1,0.1-0.2,0.1-0.2l0,0C177.2,197.9,176,187.9,159,187.9L159,187.9z"/>
	<path class="st0" d="M74.1,204l-0.3,0.9c0,0,0,0,0,0l-2,7.2l-2,7.2c-0.1,0.5-0.7,0.9-1.2,0.9H58c-8.1,0-10.1-6.3-8.1-15.7
		c2-9.6,5.8-15.5,13.8-16.1C74.6,187.5,76.7,195.1,74.1,204L74.1,204z M81.4,219.5c0,0,5-12.2,6.2-19.3c1.6-9.5-3.2-23.2-21.5-23.2
		c-18.2,0-26.1,13.1-29.1,27.3c-3,14.3,0.9,26.9,19,26.8l14.3-0.1l13.3,0c0.5,0,1-0.4,1.2-0.9l2.3-8.9c0.1-0.5-0.2-0.9-0.7-0.9
		l-2.2,0l-2.2,0c-0.4,0-0.7-0.3-0.6-0.7C81.4,219.7,81.4,219.6,81.4,219.5L81.4,219.5z"/>
	<path class="st0" d="M171.4,211.3c0,0.3-0.3,0.6-0.6,0.6c-0.3,0-0.6-0.3-0.6-0.6c0-0.3,0.3-0.6,0.6-0.6
		C171.2,210.7,171.4,211,171.4,211.3z"/>
	<g>
		<path class="st0" d="M61.5,42.6C47.9,62.2,49.6,87.7,60,108.5c0.2,0.5,0.5,1,0.8,1.5c0.2,0.3,0.3,0.6,0.5,0.9
			c0.1,0.2,0.2,0.4,0.3,0.5c0.2,0.3,0.4,0.6,0.5,1c0.3,0.6,0.7,1.1,1,1.7c0.2,0.3,0.4,0.6,0.6,0.9c0.4,0.6,0.8,1.2,1.2,1.8
			c0.2,0.3,0.3,0.5,0.5,0.8c0.5,0.8,1.1,1.6,1.7,2.4c0,0,0,0,0,0.1c0.1,0.1,0.2,0.3,0.3,0.4c0.5,0.7,1,1.4,1.5,2
			c0.2,0.2,0.4,0.5,0.6,0.7c0.5,0.6,0.9,1.2,1.4,1.7c0.2,0.2,0.4,0.4,0.5,0.6c0.6,0.8,1.3,1.5,2,2.2c0,0,0,0,0,0
			c0,0,0.1,0.1,0.1,0.1c0.7,0.7,1.3,1.4,2,2.1c0.2,0.2,0.4,0.4,0.6,0.6c0.5,0.5,1.1,1,1.6,1.6c0.2,0.2,0.4,0.4,0.7,0.6
			c0.7,0.7,1.4,1.3,2.2,2c0,0,0,0,0,0c0.1,0.1,0.3,0.2,0.4,0.3c0.7,0.6,1.3,1.1,2,1.7c0.3,0.2,0.5,0.4,0.8,0.7
			c0.5,0.4,1.1,0.9,1.7,1.3c0.3,0.2,0.6,0.4,0.9,0.7c0.6,0.5,1.2,0.9,1.9,1.3c0.2,0.2,0.4,0.3,0.7,0.5c0.1,0,0.1,0.1,0.2,0.1
			c0.6,0.4,1.2,0.8,1.8,1.2c0.3,0.2,0.5,0.4,0.8,0.5c0.9,0.6,1.9,1.2,2.8,1.7c0.3,0.1,0.5,0.3,0.8,0.4c0.7,0.4,1.4,0.8,2.1,1.2
			c0.4,0.2,0.8,0.4,1.2,0.6c0.5,0.3,1,0.5,1.5,0.8c0.1,0.1,0.2,0.1,0.3,0.2c0.2,0.1,0.4,0.2,0.6,0.3c0.8,0.4,1.6,0.8,2.4,1.1
			c0.2,0.1,0.3,0.2,0.5,0.2c0.9,0.4,1.9,0.8,2.8,1.2c0.2,0.1,0.5,0.2,0.7,0.3c0.9,0.3,1.8,0.7,2.6,1c0.1,0,0.2,0.1,0.3,0.1
			c1,0.3,2,0.7,2.9,1c0.2,0.1,0.5,0.1,0.7,0.2c1,0.3,2,0.7,3,0.9c65.9,12,85.1-39.6,85.1-39.6c-16.1,21-44.6,26.5-71.7,20.3
			c-1-0.2-2-0.6-3-0.8c-0.3-0.1-0.5-0.2-0.8-0.2c-1-0.3-1.9-0.6-2.9-0.9c-0.1,0-0.3-0.1-0.4-0.1c-0.9-0.3-1.7-0.6-2.6-1
			c-0.2-0.1-0.5-0.2-0.7-0.3c-0.9-0.4-1.9-0.8-2.8-1.2c-0.2-0.1-0.4-0.2-0.6-0.2c-0.8-0.4-1.6-0.7-2.3-1.1c-0.2-0.1-0.4-0.2-0.7-0.3
			c-0.6-0.3-1.2-0.6-1.8-0.9c-0.4-0.2-0.8-0.4-1.2-0.6c-0.7-0.4-1.4-0.8-2.2-1.2c-0.2-0.1-0.5-0.3-0.7-0.4c-1-0.6-1.9-1.1-2.8-1.7
			c-0.3-0.2-0.5-0.3-0.8-0.5c-0.7-0.4-1.3-0.9-2-1.3c-0.2-0.1-0.4-0.3-0.6-0.5c-0.6-0.5-1.3-0.9-1.9-1.4c-0.3-0.2-0.6-0.4-0.8-0.6
			c-0.6-0.4-1.1-0.9-1.7-1.3c-0.3-0.2-0.5-0.4-0.8-0.6c-0.7-0.6-1.4-1.2-2.1-1.8c-0.1-0.1-0.2-0.1-0.2-0.2c-0.8-0.7-1.5-1.3-2.2-2
			c-0.2-0.2-0.4-0.4-0.6-0.6c-0.5-0.5-1.1-1-1.6-1.6c-0.2-0.2-0.4-0.4-0.6-0.6c-0.7-0.7-1.3-1.4-2-2.1c0,0-0.1-0.1-0.1-0.1
			c-0.7-0.7-1.3-1.5-2-2.3c-0.2-0.2-0.3-0.4-0.5-0.6c-0.5-0.6-1-1.2-1.4-1.8c-0.2-0.2-0.4-0.4-0.5-0.7c-0.6-0.7-1.1-1.5-1.7-2.2
			c-15-20.5-20.4-48.7-8.4-72"/>
		<path class="st0" d="M103.8,26.1c-9.9,14.2-9.3,33.2-1.6,48.2c1.3,2.5,2.7,5,4.4,7.3c1.5,2.1,3.1,4.6,5.1,6.3
			c0.7,0.8,1.5,1.5,2.2,2.3c0.2,0.2,0.4,0.4,0.6,0.6c0.7,0.7,1.5,1.4,2.3,2.1c0,0,0.1,0.1,0.1,0.1c0,0,0,0,0,0
			c0.9,0.8,1.7,1.5,2.6,2.2c0.2,0.2,0.4,0.3,0.6,0.5c0.9,0.7,1.8,1.4,2.8,2c0,0,0.1,0,0.1,0.1c0.4,0.3,0.8,0.6,1.3,0.8
			c0.2,0.1,0.4,0.3,0.6,0.4c0.7,0.4,1.4,0.9,2,1.3c0.1,0.1,0.2,0.1,0.3,0.2c0.6,0.3,1.2,0.7,1.8,1c0.2,0.1,0.4,0.2,0.6,0.3
			c0.4,0.2,0.8,0.4,1.3,0.7c0.1,0,0.1,0.1,0.2,0.1c0.9,0.4,1.7,0.8,2.6,1.2c0.2,0.1,0.4,0.2,0.6,0.2c0.7,0.3,1.4,0.6,2.2,0.9
			c0.3,0.1,0.6,0.2,0.9,0.3c0.7,0.2,1.3,0.5,2,0.7c0.3,0.1,0.6,0.2,0.9,0.3c0.9,0.3,1.9,0.7,2.9,0.8c50.9,8.4,62.7-30.8,62.7-30.8
			c-10.6,15.3-31.1,22.5-53,16.9c-1-0.3-1.9-0.5-2.9-0.8c-0.3-0.1-0.6-0.2-0.9-0.3c-0.7-0.2-1.3-0.5-2-0.7c-0.3-0.1-0.6-0.2-0.9-0.3
			c-0.7-0.3-1.5-0.6-2.2-0.9c-0.2-0.1-0.4-0.2-0.6-0.2c-0.9-0.4-1.8-0.8-2.7-1.2c-0.4-0.2-0.9-0.5-1.3-0.7c-0.3-0.1-0.5-0.3-0.8-0.4
			c-0.6-0.3-1.1-0.6-1.7-1c-0.1-0.1-0.3-0.1-0.4-0.2c-0.7-0.4-1.4-0.8-2-1.2c-0.2-0.1-0.4-0.3-0.6-0.4c-0.4-0.3-0.9-0.6-1.3-0.9
			c-0.9-0.6-1.9-1.3-2.8-2c-0.2-0.2-0.4-0.3-0.6-0.5c-9.6-7.6-17.2-17.9-20.8-29.6c-3.8-12.2-3-25.8,3.6-36.9"/>
		<path class="st0" d="M139.4,13.8c-5.8,8.6-6.4,19.2-2.4,28.6c4.3,10,13,17.9,23.1,21.6c0.4,0.2,0.8,0.3,1.3,0.4
			c0.2,0.1,0.4,0.1,0.6,0.2c0.6,0.2,1.2,0.4,1.8,0.5c28.1,5.4,35.7-14.4,37.8-17.3c-6.7,9.6-17.9,11.9-31.7,8.6
			c-1.1-0.3-2.3-0.7-3.3-1c-1.3-0.5-2.7-1-4-1.6c-2.4-1.2-4.8-2.6-6.9-4.2c-12.3-9.4-20-27.2-11.9-41.7"/>
	</g>
</g>
</svg>
