<?xml version="1.0" encoding="utf-8"?>
<!-- Generator: Adobe Illustrator 27.2.0, SVG Export Plug-In . SVG Version: 6.00 Build 0)  -->
<svg version="1.1" id="레이어_1" xmlns="http://www.w3.org/2000/svg" xmlns:xlink="http://www.w3.org/1999/xlink" x="0px"
	 y="0px" viewBox="0 0 130 50" style="enable-background:new 0 0 130 50;" xml:space="preserve">
<style type="text/css">
	.st0{fill:#FFFFFF;}
</style>
<g>
	<polygon class="st0" points="10,0.2 0,0.2 0,40 0,40 0,40 10,50 30,50 30,40 10,40 	"/>
	<path class="st0" d="M70,0.2H40.2L40,0v50h10v0h20l10-9.2V10.2h0L70,0.2z M70,40H50V10.2h20V40z"/>
	<polygon class="st0" points="120,0.2 120,20.4 119.8,20.1 100,20.1 100,0.2 90,0.2 90,20.1 89.8,20.1 90,20.4 90,50 100,50 
		100,30.1 120,30.1 120,30.1 120,50 130,50 130,30.1 130,0.2 	"/>
</g>
</svg>
