<?xml version="1.0" encoding="utf-8"?>
<!-- Generator: Adobe Illustrator 27.2.0, SVG Export Plug-In . SVG Version: 6.00 Build 0)  -->
<svg version="1.1" id="레이어_1" xmlns="http://www.w3.org/2000/svg" xmlns:xlink="http://www.w3.org/1999/xlink" x="0px"
	 y="0px" viewBox="0 0 256 256" style="enable-background:new 0 0 256 256;" xml:space="preserve">
<style type="text/css">
	.st0{fill:#FFFFFF;}
</style>
<g>
	<path class="st0" d="M74.9,109.8h-9.1l-5.1,26.1h7.4c5.7,0,10-1.1,12.7-3.1c2.7-2.1,4.5-5.6,5.5-10.6c0.9-4.7,0.6-7.9-1-9.7
		C83.6,110.7,80.2,109.8,74.9,109.8z"/>
	<path class="st0" d="M192.5,109.8h-9.1l-5.1,26.1h7.4c5.7,0,10-1.1,12.7-3.1c2.7-2.1,4.5-5.6,5.5-10.6c0.9-4.7,0.6-7.9-1-9.7
		C201.2,110.7,197.7,109.8,192.5,109.8z"/>
	<path class="st0" d="M128,64.1C58.4,64.1,1.9,92.7,1.9,128c0,35.3,56.4,63.9,126.1,63.9s126.1-28.6,126.1-63.9
		C254.1,92.7,197.6,64.1,128,64.1z M94.8,141.5c-3.1,2.9-6.7,5.1-10.5,6.3c-3.8,1.2-8.7,1.9-14.5,1.9H58l-3.3,17.2
		c-0.1,0.7-0.7,1.2-1.4,1.2H38.2c-0.4,0-0.8-0.2-1.1-0.5c-0.3-0.3-0.4-0.8-0.3-1.2l13.4-69.2c0.1-0.7,0.7-1.2,1.4-1.2h29
		c9.1,0,15.9,2.5,20.1,7.3c4.3,4.9,5.6,11.8,3.9,20.4c-0.7,3.5-1.9,6.8-3.5,9.7C99.5,136.4,97.4,139.1,94.8,141.5z M138.1,149.2
		c-0.3-0.3-0.4-0.8-0.3-1.2l5.9-30.6c0.6-2.9,0.4-5-0.4-5.9c-0.5-0.5-2-1.4-6.5-1.4h-10.8l-7.5,38.5c-0.1,0.7-0.7,1.2-1.4,1.2h-14.9
		c-0.4,0-0.8-0.2-1.1-0.5c-0.3-0.3-0.4-0.8-0.3-1.2l13.4-69.2c0.1-0.7,0.7-1.2,1.4-1.2h14.9c0.4,0,0.8,0.2,1.1,0.5
		c0.3,0.3,0.4,0.8,0.3,1.2l-3.2,16.7h11.6c8.8,0,14.8,1.6,18.3,4.8c3.6,3.3,4.7,8.5,3.3,15.5l-6.3,32.2c-0.1,0.7-0.7,1.2-1.4,1.2
		h-15.2C138.8,149.7,138.4,149.5,138.1,149.2z M222.2,123.8c-0.7,3.5-1.9,6.8-3.5,9.7c-1.6,2.9-3.8,5.6-6.4,8
		c-3.1,2.9-6.7,5.1-10.5,6.3c-3.8,1.2-8.7,1.9-14.5,1.9h-11.7l-3.3,17.2c-0.1,0.7-0.7,1.2-1.4,1.2h-15.1c-0.4,0-0.8-0.2-1.1-0.5
		c-0.3-0.3-0.4-0.8-0.3-1.2l13.4-69.2c0.1-0.7,0.7-1.2,1.4-1.2h29c9.1,0,15.9,2.5,20.1,7.3C222.6,108.3,223.9,115.2,222.2,123.8z"/>
</g>
</svg>
