<?xml version="1.0" encoding="utf-8"?>
<!-- Generator: Adobe Illustrator 27.2.0, SVG Export Plug-In . SVG Version: 6.00 Build 0)  -->
<svg version="1.1" id="레이어_1" xmlns="http://www.w3.org/2000/svg" xmlns:xlink="http://www.w3.org/1999/xlink" x="0px"
	 y="0px" viewBox="0 0 256 256" style="enable-background:new 0 0 256 256;" xml:space="preserve">
<style type="text/css">
	.st0{fill:#FFFFFF;}
</style>
<g>
	<path class="st0" d="M253.9,128L253.9,128c0-16.7-20.9-32.5-52.9-42.3c7.4-32.6,4.1-58.6-10.4-66.9c-3.3-2-7.2-2.9-11.4-2.9v-0.1
		c-14.1,0-32.6,10.1-51.3,27.5C109.2,26,90.7,16.1,76.6,16.1v0.1c-4.3,0-8.2,0.9-11.6,2.9c-14.4,8.3-17.7,34.2-10.2,66.8
		C22.9,95.6,2.1,111.4,2.1,128c0,16.7,20.9,32.5,52.9,42.3c-7.4,32.6-4.1,58.6,10.4,66.9c3.3,2,7.2,2.9,11.5,2.9
		c14.1,0,32.6-10.1,51.3-27.5c18.7,17.3,37.2,27.3,51.3,27.3c4.3,0,8.2-0.9,11.6-2.9c14.4-8.3,17.7-34.2,10.2-66.8
		C233.1,160.5,253.9,144.7,253.9,128z M179.1,27.3L179.1,27.3c2.4,0.1,4.3,0.5,5.9,1.4c7,4,10,19.2,7.6,38.9
		c-0.6,4.8-1.5,9.9-2.6,15.1c-10.1-2.5-21-4.4-32.6-5.6c-6.9-9.5-14.1-18.1-21.4-25.7C152.7,35.8,168.4,27.4,179.1,27.3z
		 M82.5,154.3c2.4,4.1,4.9,8.1,7.4,12c-7.3-1.1-14.3-2.4-21-4.1c1.9-6.6,4.3-13.4,6.9-20.3C77.9,146.1,80.1,150.2,82.5,154.3z
		 M68.7,93.8c6.7-1.6,13.8-3,21.1-4.1c-2.5,4-5,8-7.4,12.2c-2.4,4.1-4.6,8.2-6.7,12.3C73,107.3,70.7,100.5,68.7,93.8z M81.8,128.2
		c3.2-6.9,6.8-13.8,10.6-20.5c4-6.9,8.1-13.5,12.4-19.6c7.6-0.7,15.4-1,23.2-1c7.8,0,15.5,0.4,23.1,1c4.3,6.1,8.4,12.6,12.4,19.5
		c3.9,6.7,7.4,13.5,10.7,20.4c-3.2,6.9-6.8,13.8-10.6,20.5c-4,6.9-8.1,13.5-12.4,19.6c-7.6,0.7-15.4,1-23.2,1
		c-7.8,0-15.5-0.4-23.1-1c-4.3-6.1-8.4-12.6-12.4-19.5C88.6,141.9,85,135.1,81.8,128.2z M173.5,154.2c2.4-4.1,4.6-8.3,6.7-12.4l0,0
		c2.8,6.9,5.1,13.8,7.1,20.4c-6.7,1.6-13.8,3-21.1,4.1C168.6,162.4,171.1,158.3,173.5,154.2z M173.4,101.7c-2.4-4.1-4.9-8.1-7.4-12
		c7.3,1.1,14.3,2.4,21,4.1c-1.9,6.6-4.3,13.4-6.9,20.3C178,110,175.8,105.9,173.4,101.7z M142.1,75.9c-4.6-0.2-9.3-0.4-14.1-0.4
		c-4.8,0-9.6,0.1-14.3,0.4c4.6-6,9.4-11.5,14.1-16.4C132.6,64.4,137.4,69.9,142.1,75.9z M70.7,28.9c1.5-0.9,3.5-1.3,5.9-1.3v-0.1
		c10.6,0,26.4,8.5,43.1,23.9c-7.2,7.5-14.4,16.1-21.2,25.6c-11.6,1.2-22.6,3.1-32.6,5.6c-1.2-5.1-2.1-10.1-2.7-14.9
		C60.8,48.2,63.8,33,70.7,28.9z M57.8,159.2c-5.1-1.6-9.9-3.3-14.4-5.2l0,0c-18.2-7.8-29.9-17.9-29.9-26c0-8.1,11.8-18.3,29.9-26
		c4.4-1.9,9.2-3.6,14.2-5.2c2.9,10.1,6.8,20.5,11.5,31.3C64.5,138.8,60.7,149.2,57.8,159.2z M76.8,228.7c-2.3-0.1-4.3-0.5-5.8-1.4
		l0,0c-7-4-10-19.2-7.6-38.9c0.6-4.8,1.5-9.9,2.6-15.1c10.1,2.5,21,4.4,32.6,5.6c6.9,9.5,14.1,18.1,21.4,25.7
		C103.2,220.2,87.5,228.7,76.8,228.7z M128.1,196.5c-4.8-4.9-9.5-10.4-14.3-16.4c4.6,0.2,9.3,0.4,14.1,0.4c4.8,0,9.6-0.1,14.3-0.4
		C137.6,186.1,132.8,191.6,128.1,196.5z M185.3,227.1c-1.5,0.9-3.5,1.3-5.9,1.3c-10.6,0-26.4-8.5-43.1-23.9
		c7.2-7.5,14.4-16.1,21.2-25.6c11.6-1.2,22.6-3.1,32.6-5.6c1.2,5.2,2.1,10.2,2.7,14.9C195.2,207.8,192.2,223.1,185.3,227.1z
		 M212.5,154L212.5,154c-4.4,1.9-9.2,3.6-14.2,5.2c-2.9-10.1-6.8-20.5-11.5-31.3c4.7-10.7,8.5-21.1,11.4-31.1
		c5.1,1.6,9.9,3.3,14.4,5.2c18.2,7.8,29.9,17.9,29.9,26C242.5,136.1,230.7,146.3,212.5,154z"/>
	<circle class="st0" cx="127.9" cy="128" r="23.5"/>
</g>
</svg>
