<?xml version="1.0" encoding="utf-8"?>
<!-- Generator: Adobe Illustrator 27.5.0, SVG Export Plug-In . SVG Version: 6.00 Build 0)  -->
<svg version="1.1" id="레이어_1" xmlns="http://www.w3.org/2000/svg" xmlns:xlink="http://www.w3.org/1999/xlink" x="0px"
	 y="0px" viewBox="0 0 20 20" style="enable-background:new 0 0 20 20;" xml:space="preserve">
<style type="text/css">
	.st0{fill:#AC8100;}
</style>
<g>
	<polygon class="st0" points="12,0 2.1,0 0,0 0,2.1 0,12 2.1,12 2.1,2.1 12,2.1 	"/>
</g>
<polygon class="st0" points="17.9,8 17.9,17.4 17.9,17.9 8,17.9 8,20 17.9,20 20,20 20,17.9 20,17.4 20,8 "/>
<polygon class="st0" points="14.7,8.9 11.1,8.9 11.1,5.3 8.9,5.3 8.9,8.9 5.3,8.9 5.3,11.1 8.9,11.1 8.9,14.7 11.1,14.7 11.1,11.1 
	14.7,11.1 "/>
</svg>
